HIERARCHY
ROOT Elbow
{
	OFFSET	0.00	0.00	0.00
	CHANNELS 6 Xposition Yposition Zposition Zrotation Xrotation Yrotation
	JOINT L_Wrist
	{
		OFFSET	 0.208349	 0.000000	 0.000000
		CHANNELS 3 Zrotation Xrotation Yrotation
		JOINT L_index_Proximal
		{
			OFFSET	 0.093499	 0.010637	-0.002084
			CHANNELS 3 Zrotation Xrotation Yrotation
			JOINT L_index_b
			{
				OFFSET	 0.033152	 0.000000	 0.000000
				CHANNELS 3 Zrotation Xrotation Yrotation
				JOINT L_index_c
				{
					OFFSET	 0.018651	 0.000000	 0.000000
					CHANNELS 3 Zrotation Xrotation Yrotation
					End Site
					{
						OFFSET	 0.018651	 0.000000	 0.000000
					}
				}
			}
		}
		JOINT L_middle_Proximal
		{
			OFFSET	 0.090632	-0.006115	-0.003750
			CHANNELS 3 Zrotation Xrotation Yrotation
			JOINT L_middle_b
			{
				OFFSET	 0.037195	 0.000000	 0.000000
				CHANNELS 3 Zrotation Xrotation Yrotation
				JOINT L_middle_c
				{
					OFFSET	 0.021943	 0.000000	 0.000000
					CHANNELS 3 Zrotation Xrotation Yrotation
					End Site
					{
						OFFSET	 0.021943	 0.000000	 0.000000
					}
				}
			}
		}
		JOINT L_pinky_Proximal
		{
			OFFSET	 0.074015	-0.035449	-0.000417
			CHANNELS 3 Zrotation Xrotation Yrotation
			JOINT L_pinky_b
			{
				OFFSET	 0.027285	 0.000000	 0.000000
				CHANNELS 3 Zrotation Xrotation Yrotation
				JOINT L_pinky_c
				{
					OFFSET	 0.015093	 0.000000	 0.000000
					CHANNELS 3 Zrotation Xrotation Yrotation
					End Site
					{
						OFFSET	 0.015093	 0.000000	 0.000000
					}
				}
			}
		}
		JOINT L_ring_Proximal
		{
			OFFSET	 0.082801	-0.021859	-0.003750
			CHANNELS 3 Zrotation Xrotation Yrotation
			JOINT L_ring_b
			{
				OFFSET	 0.034478	 0.000000	 0.000000
				CHANNELS 3 Zrotation Xrotation Yrotation
				JOINT L_ring_c
				{
					OFFSET	 0.021377	 0.000000	 0.000000
					CHANNELS 3 Zrotation Xrotation Yrotation
					End Site
					{
						OFFSET	 0.021377	 0.000000	 0.000000
					}
				}
			}
		}
		JOINT L_thumb_Proximal
		{
			OFFSET	 0.030306	 0.018528	 0.004584
			CHANNELS 3 Zrotation Xrotation Yrotation
			JOINT L_thumb_a
			{
				OFFSET	 0.038520	 0.000000	 0.000000
				CHANNELS 3 Zrotation Xrotation Yrotation
				JOINT L_thumb_b
				{
					OFFSET	 0.026310	 0.000000	 0.000000
					CHANNELS 3 Zrotation Xrotation Yrotation
					End Site
					{
						OFFSET	 0.026310	 0.000000	 0.000000
					}
				}
			}
		}
	}
}
MOTION
Frames:    8
Frame Time: 0.01666667
 0.529113	 0.002750	 0.746194	-80.609540	 36.554200	-178.650900	 9.172729	-0.400708	-2.273169	 1.354796	-0.445267	-21.005820	 1.682562	-0.308876	-20.803010	-0.763388	 0.072139	-10.796540	-13.488540	-5.660971	-64.579080	-0.912127	 0.676330	-73.112680	 1.728000	-0.652270	-41.357560	-33.777060	-16.232840	-52.338840	-2.787505	 1.590434	-59.407980	 1.829625	-0.893147	-52.036920	-19.604920	-10.880640	-61.213090	-0.928028	 0.645776	-69.664190	 3.378049	-1.327088	-42.885790	 61.220220	 45.935820	-64.408520	 0.933545	-0.137215	-16.723230	-2.048083	 0.493466	-27.090320
 0.529155	 0.002866	 0.746325	-80.620920	 36.526090	-178.634200	 9.202004	-0.396046	-2.246665	 1.349046	-0.444110	-21.028810	 1.678535	-0.308048	-20.797070	-0.802450	 0.075774	-10.788430	-13.467080	-5.672097	-64.669930	-0.886682	 0.659680	-73.297000	 1.700076	-0.642489	-41.402940	-33.754820	-16.242790	-52.368710	-2.777734	 1.588125	-59.509340	 1.782475	-0.871682	-52.117180	-19.599780	-10.883440	-61.283400	-0.919543	 0.641851	-69.830280	 3.325275	-1.308847	-42.960540	 61.049230	 46.054890	-64.351460	 0.785148	-0.116117	-16.823510	-1.985718	 0.484099	-27.398630
 0.529010	 0.002965	 0.746653	-80.637440	 36.366090	-178.603000	 9.329993	-0.370722	-2.102978	 1.416706	-0.465453	-21.241450	 1.634661	-0.298769	-20.713950	-0.854092	 0.079586	-10.646790	-13.377210	-5.723850	-64.960040	-0.951366	 0.718155	-74.094370	 1.687560	-0.646929	-41.946330	-33.589360	-16.326880	-52.452290	-2.654979	 1.532833	-59.993350	 1.829604	-0.901573	-52.462360	-19.526880	-10.930600	-61.594950	-0.919972	 0.649751	-70.464580	 3.206285	-1.278460	-43.469260	 60.209440	 46.845040	-63.551240	 0.359039	-0.053673	-17.003360	-1.836632	 0.456099	-27.890410
 0.528897	 0.002989	 0.746899	-80.648900	 36.324720	-178.583200	 9.399673	-0.357838	-2.029856	 1.467278	-0.481369	-21.388410	 1.595194	-0.290847	-20.665020	-0.902729	 0.083256	-10.538720	-13.308780	-5.761562	-65.222520	-0.894278	 0.683048	-74.744130	 1.837626	-0.709312	-42.209560	-33.485780	-16.374970	-52.572740	-2.554950	 1.486397	-60.373780	 1.894908	-0.936810	-52.610640	-19.449370	-10.981960	-61.855310	-0.912095	 0.650146	-70.961520	 3.178862	-1.275831	-43.727450	 59.721660	 47.357110	-62.913840	 0.277518	-0.041760	-17.113590	-1.679213	 0.421386	-28.172000
 0.528461	 0.002888	 0.747529	-80.680880	 36.108050	-178.510000	 9.623783	-0.312258	-1.771223	 1.576096	-0.516601	-21.732640	 1.384869	-0.250576	-20.511080	-1.222174	 0.111052	-10.383500	-13.276740	-5.737624	-66.170420	-0.739392	 0.578164	-76.046650	 1.918521	-0.741128	-42.240200	-33.314750	-16.430360	-53.139670	-2.515633	 1.492076	-61.340940	 1.984159	-0.988980	-52.983550	-19.358410	-11.038860	-62.704240	-1.006745	 0.734678	-72.240490	 3.085724	-1.242998	-43.873320	 58.683860	 48.218880	-62.031650	 0.209767	-0.032484	-17.609150	-1.619904	 0.412019	-28.539880
 0.528288	 0.002822	 0.747654	-80.688770	 36.019110	-178.491400	 9.684504	-0.302562	-1.716236	 1.515586	-0.500254	-21.733520	 1.265147	-0.229109	-20.528020	-1.355747	 0.123343	-10.396230	-13.278300	-5.726130	-66.372610	-0.693586	 0.543343	-76.148940	 1.943662	-0.751915	-42.295420	-33.298000	-16.428410	-53.307140	-2.550447	 1.517647	-61.504390	 2.012783	-1.002304	-52.940200	-19.377660	-11.023820	-62.895760	-0.987424	 0.722663	-72.397660	 3.126456	-1.258358	-43.839980	 58.476160	 48.372010	-61.893090	 0.268572	-0.041794	-17.687490	-1.602754	 0.407052	-28.497510
 0.528136	 0.002816	 0.747757	-80.683320	 35.947380	-178.492900	 9.729391	-0.296965	-1.684471	 1.451748	-0.482697	-21.716330	 1.209772	-0.219363	-20.554670	-1.398044	 0.127185	-10.396100	-13.300310	-5.700652	-66.540520	-0.662619	 0.519735	-76.219030	 1.987449	-0.770280	-42.366650	-33.311570	-16.411230	-53.451210	-2.572176	 1.533943	-61.614810	 2.016886	-1.003548	-52.903770	-19.411150	-10.998760	-63.060490	-0.997328	 0.731335	-72.504400	 3.153394	-1.269832	-43.859590	 58.251340	 48.520940	-61.784600	 0.303610	-0.047354	-17.733780	-1.531786	 0.388444	-28.458440
 0.527889	 0.002826	 0.747875	-80.689990	 35.883250	-178.484200	 9.759988	-0.293239	-1.663284	 1.410587	-0.471743	-21.726900	 1.149658	-0.208961	-20.602450	-1.489524	 0.135889	-10.424680	-13.330220	-5.672828	-66.634540	-0.653923	 0.513301	-76.260260	 1.991941	-0.773190	-42.425260	-33.293960	-16.413820	-53.558460	-2.583170	 1.542342	-61.674980	 2.039775	-1.014066	-52.864430	-19.450980	-10.969400	-63.183620	-1.014306	 0.744336	-72.544700	 3.174631	-1.280446	-43.923810	 58.040490	 48.646420	-61.718600	 0.345334	-0.053936	-17.755050	-1.469370	 0.371737	-28.392920
